<svg width="493" height="62" viewBox="0 0 493 62" fill="none" xmlns="http://www.w3.org/2000/svg">
<path d="M457.192 50.6259C459.497 52.0088 462.032 53.0267 464.798 53.6797C467.563 54.3327 470.396 54.6591 473.296 54.6591C475.255 54.6591 476.888 54.5247 478.194 54.2558C479.5 53.9869 480.547 53.6412 481.334 53.2187C482.121 52.7962 482.678 52.316 483.005 51.7783C483.331 51.2405 483.495 50.6932 483.495 50.1362C483.495 49.3296 483.139 48.6382 482.429 48.062C481.737 47.4858 480.585 47.1977 478.972 47.1977C478.223 47.1977 477.416 47.2457 476.552 47.3418C475.687 47.4378 474.775 47.5434 473.815 47.6587C472.874 47.7547 471.885 47.8507 470.848 47.9467C469.83 48.0428 468.793 48.0908 467.736 48.0908C465.432 48.0908 463.463 47.8411 461.831 47.3418C460.217 46.8424 458.902 46.1606 457.884 45.2964C456.866 44.4321 456.126 43.4142 455.665 42.2426C455.205 41.0519 454.974 39.7747 454.974 38.4111C454.974 36.6826 455.377 35.0885 456.184 33.6289C456.991 32.1692 458.143 30.9113 459.641 29.8549C461.139 28.7794 462.944 27.944 465.057 27.3486C467.189 26.7532 469.561 26.4555 472.173 26.4555C473.536 26.4555 474.958 26.542 476.436 26.7148C477.935 26.8685 479.404 27.0797 480.844 27.3486C482.285 27.6175 483.667 27.9344 484.993 28.2993C486.318 28.645 487.489 29.0195 488.507 29.4228L485.828 36.0488C483.658 35.2422 481.488 34.6084 479.317 34.1474C477.166 33.6673 474.948 33.4272 472.663 33.4272C471.068 33.4272 469.714 33.5521 468.601 33.8017C467.506 34.0322 466.613 34.3491 465.921 34.7524C465.23 35.1365 464.721 35.5879 464.395 36.1064C464.087 36.6058 463.934 37.1339 463.934 37.6909C463.934 38.0942 464.01 38.4591 464.164 38.7856C464.337 39.1121 464.606 39.4002 464.971 39.6499C465.355 39.8803 465.845 40.0628 466.44 40.1972C467.054 40.3125 467.804 40.3701 468.687 40.3701C469.494 40.3701 470.348 40.3221 471.251 40.226C472.154 40.13 473.095 40.034 474.074 39.938C475.054 39.8227 476.062 39.7171 477.099 39.6211C478.155 39.525 479.231 39.477 480.326 39.477C482.361 39.477 484.138 39.7171 485.655 40.1972C487.192 40.6774 488.459 41.3496 489.458 42.2138C490.457 43.0781 491.206 44.096 491.705 45.2675C492.204 46.4391 492.454 47.7163 492.454 49.0991C492.454 50.8852 492.041 52.5465 491.215 54.083C490.389 55.6194 489.16 56.9542 487.528 58.0874C485.895 59.2013 483.86 60.0752 481.42 60.709C479 61.3427 476.196 61.6596 473.008 61.6596C471.049 61.6596 469.158 61.5348 467.333 61.2851C465.508 61.0547 463.77 60.7378 462.119 60.3344C460.467 59.9119 458.911 59.4222 457.452 58.8652C456.011 58.3082 454.696 57.7129 453.505 57.0791L457.192 50.6259Z" fill="#422A0F"/>
<path d="M406.633 27.0317H415.132V43.6255C415.132 45.2003 415.305 46.6408 415.65 47.9467C415.996 49.2335 416.582 50.3379 417.408 51.2597C418.253 52.1816 419.367 52.9018 420.749 53.4204C422.151 53.9197 423.89 54.1694 425.964 54.1694C426.943 54.1694 427.932 54.0638 428.931 53.8525C429.949 53.6412 430.919 53.3532 431.841 52.9882C432.763 52.6041 433.617 52.1528 434.405 51.6342C435.211 51.1157 435.903 50.5491 436.479 49.9345V27.0317H445.006V61.0547H436.479V58.145C434.386 59.3934 432.283 60.2864 430.17 60.8242C428.057 61.3619 426.05 61.6308 424.149 61.6308C421.038 61.6308 418.368 61.2563 416.14 60.5073C413.931 59.7583 412.117 58.6731 410.695 57.2519C409.293 55.8115 408.266 54.0542 407.613 51.9799C406.96 49.8865 406.633 47.505 406.633 44.8354V27.0317Z" fill="#422A0F"/>
<path d="M259.018 27.0605H267.545V29.9414C269.812 28.6546 271.972 27.7519 274.027 27.2334C276.102 26.7148 278.128 26.4555 280.106 26.4555C282.699 26.4555 285.099 26.8397 287.308 27.6079C289.517 28.3569 291.428 29.4804 293.041 30.9785C294.654 32.4765 295.912 34.3491 296.815 36.5962C297.737 38.824 298.198 41.4072 298.198 44.3457V61.0547H289.699V45.7285C289.699 43.8655 289.43 42.2042 288.893 40.7446C288.374 39.2658 287.615 38.027 286.617 37.0283C285.637 36.0104 284.437 35.2422 283.016 34.7236C281.614 34.1858 280.039 33.917 278.291 33.917C277.369 33.917 276.418 34.013 275.439 34.205C274.479 34.3971 273.528 34.6756 272.587 35.0405C271.665 35.3862 270.772 35.8279 269.908 36.3657C269.043 36.8842 268.256 37.4796 267.545 38.1518V61.0547H259.018V27.0605Z" fill="#422A0F"/>
<path d="M208.113 44.0576C208.113 41.6185 208.603 39.333 209.582 37.2011C210.581 35.0693 211.993 33.2063 213.817 31.6123C215.661 30.0182 217.879 28.7602 220.472 27.8383C223.084 26.9165 226.013 26.4555 229.259 26.4555C232.505 26.4555 235.424 26.9165 238.017 27.8383C240.629 28.7602 242.847 30.0182 244.671 31.6123C246.515 33.2063 247.927 35.0693 248.906 37.2011C249.905 39.333 250.404 41.6185 250.404 44.0576C250.404 46.4967 249.905 48.7822 248.906 50.914C247.927 53.0459 246.515 54.9088 244.671 56.5029C242.847 58.097 240.629 59.3549 238.017 60.2768C235.424 61.1987 232.505 61.6596 229.259 61.6596C226.013 61.6596 223.084 61.1987 220.472 60.2768C217.879 59.3549 215.661 58.097 213.817 56.5029C211.993 54.9088 210.581 53.0459 209.582 50.914C208.603 48.7822 208.113 46.4967 208.113 44.0576ZM217.073 44.0576C217.073 45.4212 217.342 46.7176 217.879 47.9467C218.436 49.1567 219.233 50.2322 220.27 51.1733C221.327 52.0952 222.604 52.8346 224.102 53.3916C225.619 53.9293 227.338 54.1982 229.259 54.1982C231.179 54.1982 232.889 53.9293 234.387 53.3916C235.904 52.8346 237.181 52.0952 238.218 51.1733C239.275 50.2322 240.072 49.1567 240.609 47.9467C241.166 46.7176 241.445 45.4212 241.445 44.0576C241.445 42.694 241.166 41.3976 240.609 40.1684C240.072 38.9393 239.275 37.8637 238.218 36.9419C237.181 36.0008 235.904 35.2614 234.387 34.7236C232.889 34.1666 231.179 33.8882 229.259 33.8882C227.338 33.8882 225.619 34.1666 224.102 34.7236C222.604 35.2614 221.327 36.0008 220.27 36.9419C219.233 37.8637 218.436 38.9393 217.879 40.1684C217.342 41.3976 217.073 42.694 217.073 44.0576Z" fill="#422A0F"/>
<path d="M194.948 22.4223C194.103 22.4223 193.334 22.3071 192.643 22.0766C191.971 21.827 191.395 21.5005 190.915 21.0971C190.434 20.6746 190.06 20.1945 189.791 19.6567C189.541 19.0997 189.416 18.514 189.416 17.8994C189.416 17.2656 189.541 16.6798 189.791 16.1421C190.06 15.5851 190.434 15.1049 190.915 14.7016C191.395 14.2983 191.971 13.9814 192.643 13.7509C193.334 13.5013 194.103 13.3764 194.948 13.3764C195.812 13.3764 196.58 13.5013 197.252 13.7509C197.944 13.9814 198.53 14.2983 199.01 14.7016C199.49 15.1049 199.855 15.5851 200.104 16.1421C200.373 16.6798 200.508 17.2656 200.508 17.8994C200.508 18.514 200.373 19.0997 200.104 19.6567C199.855 20.1945 199.49 20.6746 199.01 21.0971C198.53 21.5005 197.944 21.827 197.252 22.0766C196.58 22.3071 195.812 22.4223 194.948 22.4223ZM190.684 27.0605H199.211V61.0547H190.684V27.0605Z" fill="#422A0F"/>
<path d="M141.364 13.29H149.891V29.6533C151.677 28.6738 153.665 27.896 155.854 27.3198C158.063 26.7436 160.377 26.4555 162.797 26.4555C165.601 26.4555 168.117 26.8685 170.345 27.6943C172.592 28.5202 174.494 29.7109 176.049 31.2666C177.605 32.803 178.796 34.6756 179.622 36.8842C180.467 39.0929 180.889 41.58 180.889 44.3457V61.0547H172.391V44.6914C172.391 43.0781 172.131 41.6089 171.613 40.2837C171.094 38.9393 170.336 37.7869 169.337 36.8266C168.338 35.8663 167.119 35.1269 165.678 34.6084C164.257 34.0706 162.644 33.8017 160.838 33.8017C158.668 33.8017 156.652 34.1474 154.789 34.8388C152.926 35.5302 151.293 36.4041 149.891 37.4604V61.0547H141.364V13.29Z" fill="#422A0F"/>
<path d="M98.4102 50.6259C100.715 52.0088 103.25 53.0267 106.016 53.6797C108.781 54.3327 111.614 54.6591 114.514 54.6591C116.473 54.6591 118.106 54.5247 119.412 54.2558C120.718 53.9869 121.764 53.6412 122.552 53.2187C123.339 52.7962 123.896 52.316 124.223 51.7783C124.549 51.2405 124.712 50.6932 124.712 50.1362C124.712 49.3296 124.357 48.6382 123.646 48.062C122.955 47.4858 121.803 47.1977 120.189 47.1977C119.44 47.1977 118.634 47.2457 117.77 47.3418C116.905 47.4378 115.993 47.5434 115.033 47.6587C114.092 47.7547 113.103 47.8507 112.065 47.9467C111.048 48.0428 110.01 48.0908 108.954 48.0908C106.649 48.0908 104.681 47.8411 103.048 47.3418C101.435 46.8424 100.119 46.1606 99.1016 45.2964C98.0837 44.4321 97.3442 43.4142 96.8833 42.2426C96.4224 41.0519 96.1919 39.7747 96.1919 38.4111C96.1919 36.6826 96.5952 35.0885 97.4019 33.6289C98.2085 32.1692 99.3608 30.9113 100.859 29.8549C102.357 28.7794 104.162 27.944 106.275 27.3486C108.407 26.7532 110.779 26.4555 113.391 26.4555C114.754 26.4555 116.175 26.542 117.654 26.7148C119.152 26.8685 120.622 27.0797 122.062 27.3486C123.502 27.6175 124.885 27.9344 126.21 28.2993C127.536 28.645 128.707 29.0195 129.725 29.4228L127.046 36.0488C124.876 35.2422 122.705 34.6084 120.535 34.1474C118.384 33.6673 116.166 33.4272 113.88 33.4272C112.286 33.4272 110.932 33.5521 109.818 33.8017C108.724 34.0322 107.831 34.3491 107.139 34.7524C106.448 35.1365 105.939 35.5879 105.612 36.1064C105.305 36.6058 105.151 37.1339 105.151 37.6909C105.151 38.0942 105.228 38.4591 105.382 38.7856C105.555 39.1121 105.824 39.4002 106.188 39.6499C106.573 39.8803 107.062 40.0628 107.658 40.1972C108.272 40.3125 109.021 40.3701 109.905 40.3701C110.711 40.3701 111.566 40.3221 112.469 40.226C113.371 40.13 114.312 40.034 115.292 39.938C116.271 39.8227 117.28 39.7171 118.317 39.6211C119.373 39.525 120.449 39.477 121.543 39.477C123.579 39.477 125.356 39.7171 126.873 40.1972C128.41 40.6774 129.677 41.3496 130.676 42.2138C131.674 43.0781 132.424 44.096 132.923 45.2675C133.422 46.4391 133.672 47.7163 133.672 49.0991C133.672 50.8852 133.259 52.5465 132.433 54.083C131.607 55.6194 130.378 56.9542 128.746 58.0874C127.113 59.2013 125.077 60.0752 122.638 60.709C120.218 61.3427 117.414 61.6596 114.226 61.6596C112.267 61.6596 110.375 61.5348 108.551 61.2851C106.726 61.0547 104.988 60.7378 103.336 60.3344C101.685 59.9119 100.129 59.4222 98.6694 58.8652C97.229 58.3082 95.9134 57.7129 94.7227 57.0791L98.4102 50.6259Z" fill="#422A0F"/>
<path d="M46.4106 50.3379C46.4106 48.7054 46.766 47.2169 47.4766 45.8725C48.1872 44.5281 49.2531 43.3758 50.6743 42.4155C52.0955 41.436 53.8625 40.687 55.9751 40.1684C58.1069 39.6307 60.5845 39.3618 63.4077 39.3618C65.5011 39.3618 67.7002 39.5154 70.0049 39.8227C72.3288 40.13 74.7199 40.6006 77.1782 41.2343C77.0822 40.1588 76.7557 39.1697 76.1987 38.2671C75.6418 37.3452 74.8639 36.5577 73.8652 35.9048C72.8857 35.2326 71.695 34.714 70.293 34.3491C68.9102 33.9842 67.3353 33.8017 65.5684 33.8017C64.6081 33.8017 63.5518 33.8593 62.3994 33.9746C61.2471 34.0898 60.0563 34.2627 58.8271 34.4931C57.598 34.7236 56.3784 35.0117 55.1685 35.3574C53.9777 35.7031 52.8638 36.116 51.8267 36.5962L49.2339 29.5957C50.5207 29.1347 51.8939 28.7122 53.3535 28.3281C54.8324 27.944 56.34 27.6175 57.8765 27.3486C59.4129 27.0605 60.9494 26.8397 62.4858 26.686C64.0223 26.5324 65.5107 26.4555 66.9512 26.4555C73.3083 26.4555 78.0329 28.0784 81.125 31.3242C84.2171 34.57 85.7632 39.5442 85.7632 46.247V61.0547H77.2358V57.8569C76.3524 58.3755 75.3825 58.8652 74.3262 59.3261C73.2891 59.7871 72.1559 60.1904 70.9268 60.5361C69.6976 60.8818 68.3724 61.1507 66.9512 61.3427C65.5492 61.554 64.0607 61.6596 62.4858 61.6596C59.8354 61.6596 57.502 61.3715 55.4854 60.7954C53.488 60.2192 51.8171 59.4222 50.4727 58.4043C49.1283 57.3864 48.1104 56.1956 47.4189 54.832C46.7467 53.4492 46.4106 51.9511 46.4106 50.3379ZM55.3989 50.0498C55.3989 50.6067 55.543 51.1445 55.8311 51.6631C56.1191 52.1624 56.5801 52.6137 57.2139 53.0171C57.8477 53.4012 58.6543 53.7181 59.6338 53.9677C60.6325 54.1982 61.8328 54.3134 63.2349 54.3134C64.7329 54.3134 66.1829 54.179 67.585 53.9101C68.987 53.6412 70.293 53.2859 71.5029 52.8442C72.7129 52.4025 73.8076 51.8935 74.7871 51.3174C75.7666 50.7412 76.5828 50.1458 77.2358 49.5312V48.0332C75.9298 47.6683 74.6335 47.361 73.3467 47.1113C72.0791 46.8616 70.8595 46.6696 69.688 46.5351C68.5356 46.3815 67.4409 46.2758 66.4038 46.2182C65.3859 46.1606 64.4928 46.1318 63.7246 46.1318C62.1305 46.1318 60.8053 46.2374 59.749 46.4487C58.6927 46.66 57.8381 46.948 57.1851 47.313C56.5321 47.6587 56.0711 48.0716 55.8022 48.5517C55.5334 49.0319 55.3989 49.5312 55.3989 50.0498Z" fill="#422A0F"/>
<path d="M0 16.0268H40.2744V24.0356H9.13232V35.8183H35.5786V43.3374H9.13232V61.0547H0V16.0268Z" fill="#422A0F"/>
<path d="M324.276 0H355.331C360.019 0 364.081 0.494792 367.519 1.48438C370.956 2.44792 373.808 3.85417 376.073 5.70312C378.339 7.55208 380.019 9.80469 381.112 12.4609C382.232 15.1172 382.792 18.125 382.792 21.4844C382.792 23.75 382.519 25.9115 381.972 27.9688C381.425 30 380.578 31.875 379.433 33.5938C378.313 35.3125 376.894 36.849 375.175 38.2031C373.456 39.5312 371.438 40.638 369.12 41.5234L382.401 61.0547H367.245L355.761 43.7109H355.409L336.659 43.6719V61.0547H324.276V0ZM355.644 32.9688C357.987 32.9688 360.032 32.6953 361.776 32.1484C363.547 31.6016 365.019 30.8333 366.19 29.8438C367.388 28.8542 368.274 27.6562 368.847 26.25C369.446 24.8177 369.745 23.2292 369.745 21.4844C369.745 18.0729 368.573 15.4427 366.229 13.5938C363.886 11.7188 360.357 10.7812 355.644 10.7812H336.659V32.9688H355.644Z" fill="#D98B30"/>
</svg>
